PathFileType	4	(X/Y/Z)	Walk9.trc
DataRate	CameraRate	NumFrames	NumMarkers	Units	OrigDataRate	OrigDataStartFrame	OrigNumFrames
200.000000	200.000000	5	67	mm	200.000000	634	954
Frame#	Times		RCAR		LowerBodyModelVer		RUA1		LFHD		LTB3		LTH3		LTB2		RASI		LTB4		RFHD		LACR1		LTH1		RElbow		LToe		RACR1		RBHD		RTH3		LUA1		LCAR		RFA1		RWRU		RLFC		LASI		PELOrigin		RTH4		CLAV		LTH2		LWRR		RTB4		C7		STRN		LLFC		RBack		LElbow		RMT1		LFA1		RTH1		RTB3		LTB1		RTH2		LWRU		RToe		LPSI		RPSI		RTB1		LHJC		MidPelvis		OPelvis		RHJC		SACR		XPelvis		YPelvis		ZPelvis		LTH4		RTB2		RWRR		LElbowM		LMT1		LBHD		RLMAL		RMMAL		RCAL		LMMAL		T10		RElbowM		LCAL		LMT5
			X1	Y1	Z1	X2	Y2	Z2	X3	Y3	Z3	X4	Y4	Z4	X5	Y5	Z5	X6	Y6	Z6	X7	Y7	Z7	X8	Y8	Z8	X9	Y9	Z9	X10	Y10	Z10	X11	Y11	Z11	X12	Y12	Z12	X13	Y13	Z13	X14	Y14	Z14	X15	Y15	Z15	X16	Y16	Z16	X17	Y17	Z17	X18	Y18	Z18	X19	Y19	Z19	X20	Y20	Z20	X21	Y21	Z21	X22	Y22	Z22	X23	Y23	Z23	X24	Y24	Z24	X25	Y25	Z25	X26	Y26	Z26	X27	Y27	Z27	X28	Y28	Z28	X29	Y29	Z29	X30	Y30	Z30	X31	Y31	Z31	X32	Y32	Z32	X33	Y33	Z33	X34	Y34	Z34	X35	Y35	Z35	X36	Y36	Z36	X37	Y37	Z37	X38	Y38	Z38	X39	Y39	Z39	X40	Y40	Z40	X41	Y41	Z41	X42	Y42	Z42	X43	Y43	Z43	X44	Y44	Z44	X45	Y45	Z45	X46	Y46	Z46	X47	Y47	Z47	X48	Y48	Z48	X49	Y49	Z49	X50	Y50	Z50	X51	Y51	Z51	X52	Y52	Z52	X53	Y53	Z53	X54	Y54	Z54	X55	Y55	Z55	X56	Y56	Z56	X57	Y57	Z57	X58	Y58	Z58	X59	Y59	Z59	X60	Y60	Z60	X61	Y61	Z61	X62	Y62	Z62	X63	Y63	Z63	X64	Y64	Z64	X65	Y65	Z65	X66	Y66	Z66	X67	Y67	Z67

634	3.17	-393.21	807.11	302.46	9	2014	4	-557.77	1170.4	236.09	-467.79	1554.2	-65.38	-292.1	189.94	-71.353	-486.08	571.46	-174.58	-337.66	267.11	-123.37	-500.86	941.8	145.45	-314.07	272.92	-67.105	-463.03	1551.9	29.404	-605.36	1345.1	-174.52	-562.73	716.74	-225.83	-586.75	1050.1	281.62	-113.96	106.04	-68.582	-576.34	1343.5	134.59	-620.56	1518.1	50.969	-683.61	565.09	150.73	-664.94	1169.8	-262.38	-711	750.94	-311.56	-531.26	912.38	299.91	-471.22	818.43	298.46	-722.02	484.9	126.33	-488.07	924.46	-150.51	-494.46	933.13	-2.5259	-653.38	639.88	175.79	-529.74	1304	-24.351	-473.45	676.32	-191.52	-700.98	798.54	-269.74	-777.25	246.12	38.904	-662.82	1388.5	-6.4999	-473.81	1196.3	-23.775	-435.92	468.08	-137.63	-707.25	1293.8	105.91	-732.04	1055.7	-279	-785.82	29.217	-2.3442	-757.9	921.33	-295.91	-618.9	715.62	204	-814.3	169.07	38.001	-335.02	357.18	-65.737	-599.78	626.69	155.19	-762.24	804.33	-307.06	-718.1	19.292	31.372	-740.73	931.69	-63.842	-744.98	941.25	24.54	-739.99	325.19	46.264	-561.51	833.49	-100.74	-618.66	934.8	-11.088	-494.46	933.13	-2.5259	-570.2	845.28	100.51	-742.86	936.47	-19.651	-414.55	931.94	0.99753	-493.07	1013	-7.1463	-497.91	937.81	77.263	-524.71	645.98	-197.62	-798.99	255.49	97.843	-426.33	847.22	250.6	-753.09	1033.9	-200.93	-171.32	83.272	-37.384	-622.68	1514.2	-90.196	-892.09	76.449	57.027	-875.96	82.615	-24.929	-961.59	59.504	21.593	-276.58	82.081	-14.284	-747.06	1124.9	-9.2236	-605.35	1008.2	193.15	-340.19	21.427	-54.82	-169.55	86.833	-98.451
635	3.175	-386.16	807.19	302.19	9	2014	4	-551.57	1170	235.72	-461.52	1553.7	-65.737	-286.35	189	-70.347	-478.47	571.42	-174.18	-331.27	266.4	-122.54	-494.41	941.23	145.67	-308.02	272.03	-66.091	-456.88	1551.4	29.055	-598.78	1344.2	-175.19	-555.17	716.55	-225.74	-580.27	1049.6	281.15	-108.54	103.08	-66.732	-570.14	1343	134.07	-614.4	1517.3	50.374	-677.83	564.64	150.5	-658.6	1168.9	-262.83	-706.63	750.06	-311.84	-524.47	912.03	299.52	-464.19	818.23	298.09	-716.44	484.51	126.14	-480.75	923.92	-150.47	-487.58	932.57	-2.4035	-647.38	639.34	175.58	-523.22	1303.4	-24.844	-465.94	676.31	-191.09	-696.16	797.61	-270.08	-774.25	246.09	38.804	-656.44	1387.8	-7.2246	-467.25	1195.6	-24.061	-428.54	467.82	-137.25	-700.98	1293	105.15	-726.02	1054.9	-279.17	-785.68	29.408	-2.2783	-752.56	920.7	-296	-612.7	714.97	203.81	-812.28	169.54	38.043	-328.67	356.33	-64.726	-593.77	625.97	155.13	-757.59	803.71	-307.11	-718.05	19.26	31.278	-733.77	931.03	-64.51	-738.17	940.46	23.867	-735.98	324.7	45.963	-554.32	832.83	-100.9	-611.78	934.16	-11.363	-487.58	932.57	-2.4035	-563.61	844.59	100.48	-735.97	935.75	-20.322	-407.68	931.44	1.3481	-486.23	1012.4	-7.007	-491.26	937.24	77.376	-517.14	645.88	-197.37	-795.64	255.75	97.839	-419.34	847.15	250.26	-746.9	1033.2	-201.08	-166.4	80.916	-36.027	-616.32	1513.5	-90.791	-891.2	77.882	57.473	-875.29	83.876	-24.538	-961.06	61.836	22.266	-271.75	80.944	-13.375	-740.41	1124.2	-9.828	-599.09	1007.6	192.71	-335.71	21.519	-54.484	-164.06	84.814	-96.842
636	3.18	-379.28	807.25	301.92	9	2014	4	-545.43	1169.6	235.35	-455.24	1553.3	-66.107	-280.96	187.94	-69.339	-470.81	571.47	-173.76	-325.12	265.64	-121.7	-487.89	940.67	145.83	-302.21	271.06	-65.075	-450.72	1550.9	28.695	-592.17	1343.3	-175.88	-547.52	716.48	-225.62	-573.89	1049.2	280.65	-103.67	99.476	-64.957	-563.94	1342.5	133.54	-608.23	1516.6	49.752	-671.87	564.17	150.27	-652.15	1168	-263.29	-702.14	749.19	-312.11	-517.83	911.71	299.09	-457.33	818.03	297.7	-710.66	484.07	125.94	-473.41	923.46	-150.48	-480.65	932.06	-2.3257	-641.26	638.8	175.36	-516.66	1302.8	-25.362	-458.35	676.4	-190.65	-691.25	796.68	-270.41	-771.11	246.06	38.693	-650.02	1387.1	-7.9813	-460.66	1195	-24.365	-421.1	467.66	-136.88	-694.69	1292.4	104.36	-719.87	1054.1	-279.37	-785.53	29.61	-2.2117	-747.1	920.09	-296.12	-606.39	714.33	203.62	-810.14	170.04	38.083	-322.41	355.44	-63.717	-587.63	625.27	155.05	-752.81	803.1	-307.19	-717.99	19.228	31.173	-726.78	930.44	-65.151	-731.31	939.72	23.232	-731.79	324.17	45.645	-547.1	832.24	-101.1	-604.85	933.57	-11.643	-480.65	932.06	-2.3257	-556.95	843.94	100.39	-729.05	935.08	-20.96	-400.76	930.98	1.6415	-479.34	1011.9	-6.8991	-484.55	936.7	77.445	-509.49	645.88	-197.08	-792.13	256.01	97.823	-412.48	847.07	249.92	-740.61	1032.4	-201.27	-162.06	78.104	-34.719	-609.94	1512.9	-91.413	-890.22	79.407	57.948	-874.55	85.226	-24.122	-960.45	64.316	22.971	-267.5	79.67	-12.471	-733.72	1123.5	-10.442	-592.87	1007	192.23	-331.97	21.707	-54.149	-159.16	82.349	-95.299
637	3.185	-372.57	807.31	301.66	9	2014	4	-539.33	1169.2	234.96	-448.93	1553	-66.49	-275.92	186.81	-68.341	-463.1	571.62	-173.34	-319.18	264.87	-120.88	-481.31	940.13	145.92	-296.59	270.03	-64.069	-444.56	1550.5	28.322	-585.53	1342.5	-176.59	-539.81	716.51	-225.48	-567.6	1048.8	280.12	-99.317	95.315	-63.269	-557.71	1342.2	132.99	-602.04	1516	49.104	-665.75	563.67	150.03	-645.59	1167	-263.77	-697.53	748.34	-312.37	-511.32	911.41	298.64	-450.63	817.84	297.31	-704.66	483.6	125.72	-466.06	923.07	-150.51	-473.68	931.6	-2.2951	-634.99	638.25	175.12	-510.08	1302.3	-25.903	-450.71	676.57	-190.2	-686.23	795.77	-270.72	-767.81	246.04	38.574	-643.57	1386.5	-8.7695	-454.04	1194.5	-24.688	-413.62	467.6	-136.53	-688.39	1291.8	103.55	-713.59	1053.3	-279.6	-785.35	29.821	-2.145	-741.5	919.48	-296.27	-599.96	713.7	203.43	-807.89	170.58	38.126	-316.22	354.52	-62.721	-581.34	624.59	154.95	-747.91	802.52	-307.31	-717.93	19.194	31.058	-719.77	929.93	-65.756	-724.41	939.04	22.643	-727.42	323.61	45.316	-539.85	831.74	-101.34	-597.89	933.04	-11.926	-473.68	931.6	-2.2951	-550.22	843.33	100.23	-722.09	934.48	-21.556	-393.8	930.56	1.8748	-472.41	1011.5	-6.8239	-477.79	936.19	77.468	-501.79	645.99	-196.76	-788.43	256.26	97.796	-405.77	847	249.57	-734.21	1031.7	-201.49	-158.27	74.9	-33.469	-603.54	1512.4	-92.061	-889.15	81.03	58.45	-873.73	86.672	-23.684	-959.74	66.958	23.698	-263.79	78.297	-11.584	-727.01	1122.8	-11.062	-586.67	1006.5	191.7	-328.88	21.995	-53.822	-154.83	79.487	-93.834
638	3.19	-366.05	807.34	301.4	9	2014	4	-533.29	1168.9	234.56	-442.6	1552.8	-66.888	-271.19	185.63	-67.368	-455.37	571.86	-172.93	-313.44	264.1	-120.07	-474.66	939.61	145.95	-291.17	268.98	-63.084	-438.37	1550.2	27.935	-578.86	1341.8	-177.34	-532.03	716.66	-225.33	-561.41	1048.4	279.55	-95.436	90.696	-61.68	-551.47	1341.9	132.43	-595.84	1515.4	48.43	-659.43	563.16	149.79	-638.92	1166.2	-264.26	-692.8	747.5	-312.62	-504.97	911.14	298.14	-444.1	817.66	296.91	-698.43	483.09	125.49	-458.69	922.77	-150.57	-466.68	931.19	-2.3132	-628.57	637.7	174.86	-503.48	1301.9	-26.467	-443.01	676.84	-189.75	-681.11	794.87	-271.02	-764.35	246.03	38.452	-637.1	1386	-9.5884	-447.4	1194	-25.029	-406.08	467.65	-136.2	-682.08	1291.2	102.7	-707.17	1052.5	-279.85	-785.15	30.039	-2.0784	-735.77	918.9	-296.45	-593.42	713.07	203.22	-805.5	171.16	38.173	-310.1	353.61	-61.749	-574.9	623.93	154.83	-742.88	801.95	-307.46	-717.87	19.158	30.934	-712.75	929.49	-66.316	-717.47	938.4	22.109	-722.84	323.01	44.984	-532.57	831.32	-101.62	-590.89	932.57	-12.208	-466.68	931.19	-2.3132	-543.44	842.77	100.01	-715.11	933.95	-22.103	-386.8	930.19	2.0465	-465.43	1011.1	-6.7819	-470.97	935.72	77.443	-494.04	646.22	-196.42	-784.55	256.51	97.765	-399.21	846.93	249.22	-727.72	1031	-201.74	-154.97	71.386	-32.284	-597.11	1511.9	-92.734	-887.97	82.761	58.972	-872.8	88.222	-23.227	-958.91	69.775	24.439	-260.55	76.866	-10.725	-720.29	1122.3	-11.687	-580.48	1006.1	191.13	-326.38	22.38	-53.51	-151.01	76.294	-92.462
